<svg width="20" height="21" viewBox="0 0 20 21" fill="none" xmlns="http://www.w3.org/2000/svg">
<path d="M16.302 5.08314H14.0257C13.1545 5.08314 12.4098 5.39227 11.7915 6.01054C11.2013 6.62881 10.9063 7.37354 10.9063 8.24473V10.4789H9.09362V13.1768H10.9063V19.4578H13.6042V13.1768H16.302V10.4789H13.6042V8.66628C13.6042 8.44145 13.6885 8.24473 13.8571 8.07611C14.0257 7.87939 14.2365 7.78103 14.4894 7.78103H16.302V5.08314ZM0.999939 2.5C0.999939 1.94772 1.44765 1.5 1.99994 1.5H17.9999C18.5522 1.5 18.9999 1.94772 18.9999 2.5V18.4578C18.9999 19.0101 18.5522 19.4578 17.9999 19.4578H1.99994C1.44765 19.4578 0.999939 19.0101 0.999939 18.4578V2.5Z" fill="black"/>
</svg>
