<svg width="20" height="21" viewBox="0 0 20 21" fill="none" xmlns="http://www.w3.org/2000/svg">
<path d="M9.99992 3.12165C12.403 3.12165 12.6877 3.1308 13.6367 3.1741C14.5142 3.21415 14.9907 3.36077 15.3079 3.48398C15.7279 3.64725 16.0278 3.84231 16.3427 4.15723C16.6576 4.47215 16.8527 4.772 17.0159 5.19206C17.1392 5.50923 17.2858 5.98577 17.3258 6.86323C17.3691 7.81228 17.3783 8.0969 17.3783 10.5C17.3783 12.9031 17.3691 13.1878 17.3258 14.1368C17.2858 15.0143 17.1392 15.4908 17.0159 15.808C16.8527 16.228 16.6576 16.5279 16.3427 16.8428C16.0278 17.1577 15.7279 17.3528 15.3079 17.516C14.9907 17.6393 14.5142 17.7859 13.6367 17.8259C12.6878 17.8692 12.4032 17.8784 9.99992 17.8784C7.59666 17.8784 7.31204 17.8692 6.36317 17.8259C5.48568 17.7859 5.00913 17.6393 4.692 17.516C4.2719 17.3528 3.97206 17.1577 3.65713 16.8428C3.34221 16.5279 3.14715 16.228 2.98392 15.808C2.86067 15.4908 2.71405 15.0143 2.674 14.1368C2.6307 13.1878 2.62156 12.9031 2.62156 10.5C2.62156 8.0969 2.6307 7.81228 2.674 6.86326C2.71405 5.98577 2.86067 5.50923 2.98392 5.19206C3.14715 4.772 3.34221 4.47215 3.65713 4.15723C3.97206 3.84231 4.2719 3.64725 4.692 3.48398C5.00913 3.36077 5.48568 3.21415 6.36313 3.1741C7.31218 3.1308 7.59681 3.12165 9.99992 3.12165ZM9.99992 1.5C7.55565 1.5 7.2492 1.51036 6.28925 1.55416C5.33127 1.59789 4.67706 1.75001 4.10456 1.97251C3.51273 2.20251 3.01082 2.51025 2.51049 3.01058C2.01015 3.51092 1.70241 4.01283 1.47241 4.60466C1.24991 5.17716 1.09779 5.83137 1.05406 6.78935C1.01026 7.74926 0.999939 8.05575 0.999939 10.5C0.999939 12.9443 1.01026 13.2508 1.05406 14.2107C1.09779 15.1687 1.24991 15.8229 1.47241 16.3954C1.70241 16.9872 2.01015 17.4891 2.51049 17.9895C3.01082 18.4898 3.51273 18.7975 4.10456 19.0275C4.67706 19.25 5.33127 19.4021 6.28925 19.4459C7.2492 19.4897 7.55565 19.5 9.99992 19.5C12.4442 19.5 12.7507 19.4897 13.7106 19.4459C14.6686 19.4021 15.3228 19.25 15.8953 19.0275C16.4871 18.7975 16.989 18.4898 17.4894 17.9895C17.9897 17.4891 18.2974 16.9872 18.5274 16.3954C18.7499 15.8229 18.9021 15.1687 18.9458 14.2107C18.9896 13.2508 18.9999 12.9443 18.9999 10.5C18.9999 8.05575 18.9896 7.74926 18.9458 6.78935C18.9021 5.83137 18.7499 5.17716 18.5274 4.60466C18.2974 4.01283 17.9897 3.51092 17.4894 3.01058C16.989 2.51025 16.4871 2.20251 15.8953 1.97251C15.3228 1.75001 14.6686 1.59789 13.7106 1.55416C12.7507 1.51036 12.4442 1.5 9.99992 1.5ZM9.99992 5.87838C7.44747 5.87838 5.37828 7.94757 5.37828 10.5C5.37828 13.0525 7.44747 15.1217 9.99992 15.1217C12.5524 15.1217 14.6216 13.0525 14.6216 10.5C14.6216 7.94757 12.5524 5.87838 9.99992 5.87838ZM9.99992 13.5C8.34308 13.5 6.9999 12.1569 6.9999 10.5C6.9999 8.84317 8.34308 7.5 9.99992 7.5C11.6568 7.5 12.9999 8.84317 12.9999 10.5C12.9999 12.1569 11.6568 13.5 9.99992 13.5ZM15.8841 5.69579C15.8841 6.29226 15.4006 6.77581 14.8042 6.77581C14.2077 6.77581 13.7241 6.29226 13.7241 5.69579C13.7241 5.09931 14.2077 4.6158 14.8042 4.6158C15.4006 4.6158 15.8841 5.09931 15.8841 5.69579Z" fill="#0A0A08"/>
</svg>
