<svg width="20" height="21" viewBox="0 0 20 21" fill="none" xmlns="http://www.w3.org/2000/svg">
<g clip-path="url(#clip0_1420_5644)">
<path d="M15.821 2.5495C14.4443 1.22789 12.5391 0.5 10.4564 0.5C7.275 0.5 5.31827 1.80411 4.23702 2.89806C2.90443 4.24623 2.14033 6.03635 2.14033 7.80948C2.14033 10.0358 3.07154 11.7445 4.63096 12.3802C4.73565 12.4231 4.841 12.4447 4.94428 12.4447C5.27327 12.4447 5.53393 12.2295 5.62425 11.8842C5.6769 11.6861 5.79886 11.1974 5.8519 10.9852C5.96542 10.5663 5.8737 10.3648 5.62612 10.073C5.17511 9.53933 4.96507 8.90827 4.96507 8.08698C4.96507 5.64748 6.78156 3.05481 10.1482 3.05481C12.8196 3.05481 14.479 4.5731 14.479 7.0171C14.479 8.55937 14.1468 9.98765 13.5434 11.039C13.1241 11.7696 12.3868 12.6404 11.2549 12.6404C10.7654 12.6404 10.3258 12.4393 10.0483 12.0888C9.78626 11.7574 9.69985 11.3294 9.80528 10.8832C9.92434 10.3792 10.0867 9.8534 10.2439 9.34511C10.5305 8.41675 10.8014 7.53991 10.8014 6.84034C10.8014 5.64377 10.0658 4.83974 8.97106 4.83974C7.5798 4.83974 6.48984 6.2528 6.48984 8.05671C6.48984 8.9414 6.72496 9.60312 6.8314 9.85719C6.65613 10.5998 5.61448 15.0146 5.4169 15.8471C5.30264 16.3331 4.61444 20.1716 5.75354 20.4776C7.03339 20.8215 8.17742 17.0831 8.29387 16.6607C8.38824 16.3171 8.71844 15.018 8.92078 14.2195C9.53864 14.8146 10.5334 15.2169 11.5014 15.2169C13.3262 15.2169 14.9673 14.3958 16.1225 12.9049C17.2427 11.4588 17.8597 9.4432 17.8597 7.22975C17.8596 5.49936 17.1165 3.79341 15.821 2.5495Z" fill="black"/>
</g>
<defs>
<clipPath id="clip0_1420_5644">
<rect width="20" height="20" fill="white" transform="translate(-6.10352e-05 0.5)"/>
</clipPath>
</defs>
</svg>
