<svg width="20" height="21" viewBox="0 0 20 21" fill="none" xmlns="http://www.w3.org/2000/svg">
<path d="M18.7892 7.19789C18.9297 8.1815 18.9999 9.15105 18.9999 10.1066V11.4555L18.7892 14.3642C18.6768 15.1792 18.4379 15.7693 18.0725 16.1347C17.6791 16.5281 17.0889 16.781 16.302 16.8934C15.5433 16.9496 14.6299 16.9918 13.562 17.0199C12.5222 17.048 11.665 17.0621 10.9906 17.0621H9.97886C6.85942 17.034 4.82195 16.9778 3.86645 16.8934C3.86645 16.8934 3.75404 16.8794 3.52921 16.8513C3.30439 16.8232 3.12172 16.7951 2.9812 16.767C2.84069 16.7389 2.65802 16.6686 2.43319 16.5562C2.23647 16.4438 2.0538 16.3033 1.88518 16.1347C1.74467 15.966 1.60415 15.7412 1.46364 15.4602C1.35123 15.1511 1.28097 14.8841 1.25287 14.6593L1.16856 14.3642C1.05615 13.3806 0.999939 12.411 0.999939 11.4555V10.1066L1.16856 7.19789C1.28097 6.3829 1.51985 5.79274 1.88518 5.4274C2.27863 5.00585 2.88284 4.75293 3.69783 4.66862C4.45661 4.61241 5.35591 4.57026 6.39572 4.54215C7.43554 4.51405 8.29268 4.5 8.96715 4.5H9.97886C12.5081 4.5 14.6159 4.55621 16.302 4.66862C17.0889 4.75293 17.6791 5.00585 18.0725 5.4274C18.185 5.53981 18.2833 5.68033 18.3676 5.84895C18.4519 5.98946 18.5222 6.14403 18.5784 6.31265C18.6346 6.45316 18.6768 6.59368 18.7049 6.73419C18.733 6.87471 18.7611 6.98712 18.7892 7.07143V7.19789ZM12.4238 10.9075L13.014 10.6124L8.16622 8.08314V13.1417L12.4238 10.9075Z" fill="black"/>
</svg>
